IKResults
version=1
nRows=14
nColumns=40
inDegrees=yes

Units are S.I. units (second, meters, Newtons, ...)
Angles are in degrees.

endheader
time	pelvis_tilt	pelvis_list	pelvis_rotation	pelvis_tx	pelvis_ty	pelvis_tz	hip_flexion_r	hip_adduction_r	hip_rotation_r	knee_angle_r	knee_angle_r_beta	ankle_angle_r	subtalar_angle_r	mtp_angle_r	hip_flexion_l	hip_adduction_l	hip_rotation_l	knee_angle_l	knee_angle_l_beta	ankle_angle_l	subtalar_angle_l	mtp_angle_l	lumbar_extension	lumbar_bending	lumbar_rotation	arm_flex_r	arm_add_r	arm_rot_r	elbow_flex_r	pro_sup_r	wrist_flex_r	wrist_dev_r	arm_flex_l	arm_add_l	arm_rot_l	elbow_flex_l	pro_sup_l	wrist_flex_l	wrist_dev_l
      1.07000000	     15.77798352	     -2.94196988	      2.53273746	     -0.12548170	      0.95457266	     -1.40175176	    -15.78992619	      5.02564708	    -15.63370116	    -14.02352531	     -0.24475669	      8.49864955	      0.98223313	     -4.27268052	     -0.98551304	      4.21574893	      1.33687291	    -57.22158790	     -0.99870511	      7.60708187	     17.69820905	      2.69035194	    -21.89901382	      1.96218480	     -0.11558716	      0.95464211	     -9.48050942	     -3.28452488	     29.19475872	     89.95437384	      0.00000000	      0.00000000	      0.49660165	      6.51720038	     14.39805435	     17.15035851	     89.95437384	      0.00000000	      0.00000000
      1.08000000	     16.08627902	     -2.43425158	      1.91265755	     -0.11472525	      0.95489534	     -1.40075424	    -17.15338951	      4.54836376	    -14.42336425	    -13.47277522	     -0.23514429	      8.91806594	      0.07281973	     -3.86157959	     -0.47085633	      3.61682395	      2.16659928	    -55.83830460	     -0.97456226	      8.64898657	     17.64600909	      6.28057052	    -22.26682051	      1.19266830	      0.73217697	      1.42313477	     -9.40840876	     -4.66546465	     30.28764864	     89.95437384	      0.00000000	      0.00000000	     -0.33861238	      6.74821603	     13.06755125	     16.22418672	     89.95437384	      0.00000000	      0.00000000
      1.09000000	     15.84436742	     -2.25986360	      1.85456291	     -0.10441702	      0.95402080	     -1.40018753	    -17.59990078	      4.42071250	    -14.52476854	    -13.46529278	     -0.23501369	      9.39332776	     -0.05590961	     -3.86693281	      0.96513319	      3.52183701	      2.63403516	    -54.67857024	     -0.95432108	      9.23197004	     17.63902420	      6.24844805	    -22.03676193	      0.90670529	      0.85409824	      2.12924224	     -9.48393627	     -4.93142910	     31.12066331	     89.95437384	      0.00000000	      0.00000000	     -1.39834081	      6.86045546	     12.94148555	     15.65286409	     89.95437384	      0.00000000	      0.00000000
      1.10000000	     15.55463961	     -2.11036798	      1.94414539	     -0.09423845	      0.95295783	     -1.39982382	    -17.88995129	      4.34801298	    -14.50137180	    -13.66098842	     -0.23842923	      9.67686441	     -0.17550323	     -3.84499010	      2.45969188	      3.53845315	      3.19729699	    -53.34121425	     -0.93097982	      9.53860196	     17.53129316	      6.20111366	    -21.80070950	      0.68658550	      0.78022996	      2.81711360	     -9.51161838	     -5.18127486	     32.06354335	     89.95437384	      0.00000000	      0.00000000	     -2.50204758	      6.98896452	     12.79546041	     15.26310408	     89.95437384	      0.00000000	      0.00000000
      1.11000000	     15.70692253	     -1.38169234	      1.36713937	     -0.08355432	      0.95262919	     -1.39930124	    -18.83533018	      3.51572431	    -13.52516682	    -13.62258403	     -0.23775894	     10.53695186	     -0.70254080	     -3.86567792	      2.88773266	      2.66014258	      4.01039963	    -51.21255385	     -0.89382768	     10.38225867	     17.76011902	      6.39216077	    -22.00237692	     -0.27828683	      1.41313345	      3.23384954	     -9.42078261	     -6.48579383	     33.30033661	     89.95437384	      0.00000000	      0.00000000	     -3.55453214	      7.16153400	     11.93418427	     15.03395479	     89.95437384	      0.00000000	      0.00000000
      1.12000000	     15.78102947	     -0.99156118	      1.14007946	     -0.07284982	      0.95200931	     -1.39886010	    -19.71146774	      3.17059202	    -12.85496751	    -13.47853094	     -0.23524474	     10.72187760	     -1.53414496	     -3.75463253	      3.54281782	      2.36279879	      4.88957576	    -49.12667280	     -0.85742219	     10.65055164	     17.74857865	      6.81398494	    -22.08449985	     -0.81076739	      1.72096411	      3.69587826	     -9.43176156	     -7.10554842	     34.42447282	     89.95437384	      0.00000000	      0.00000000	     -4.76338579	      7.40739610	     10.93147613	     15.01227250	     89.95437384	      0.00000000	      0.00000000
      1.13000000	     15.34305743	     -0.96173106	      1.33872663	     -0.06267162	      0.95032067	     -1.39883152	    -19.80219732	      3.25550004	    -12.82116711	    -13.72117747	     -0.23947972	     10.96048434	     -1.67196332	     -3.72243448	      5.06004911	      2.49201806	      5.41347114	    -47.42641812	     -0.82774715	     10.86479315	     17.57315322	      6.77026777	    -21.66484849	     -0.84202063	      1.60666019	      4.27610093	     -9.51098041	     -7.27917912	     35.40744515	     89.95437384	      0.00000000	      0.00000000	     -5.90920494	      7.51546877	     10.84117067	     14.82702616	     89.95437384	      0.00000000	      0.00000000
      1.14000000	     15.33315569	     -0.32014210	      0.88762102	     -0.05197399	      0.94940885	     -1.39874658	    -20.49572871	      2.51451026	    -11.94013962	    -13.81546543	     -0.24112536	     11.76572173	     -2.52224326	     -3.65312131	      5.50312708	      1.70280302	      6.14477955	    -44.79446863	     -0.78181096	     11.44654561	     17.47080893	      6.86621145	    -21.68860174	     -1.65776375	      2.04141801	      4.61848789	     -9.51175587	     -8.08950895	     36.71550510	     89.95437384	      0.00000000	      0.00000000	     -7.01736475	      7.62581989	     10.45662055	     14.83130374	     89.95437384	      0.00000000	      0.00000000
      1.15000000	     14.84625472	     -0.36071937	      1.18996741	     -0.04160712	      0.94743085	     -1.39902143	    -20.54812154	      2.70047177	    -11.94236566	    -14.06600861	     -0.24549816	     11.92401529	     -2.65009242	     -3.61132593	      6.95345976	      1.90624266	      6.71850197	    -42.84184643	     -0.74773128	     11.47940068	     17.17166546	      6.81840511	    -21.20008205	     -1.56214617	      1.85548066	      5.10847848	     -9.61409226	     -8.21342513	     37.74397709	     89.95437384	      0.00000000	      0.00000000	     -8.11812994	      7.72058934	     10.38979921	     14.67050384	     89.95437384	      0.00000000	      0.00000000
      1.16000000	     14.99324166	      0.38012349	      0.72757812	     -0.03079313	      0.94669415	     -1.39926949	    -21.46449952	      1.85264410	    -10.92793836	    -14.08070082	     -0.24575459	     12.35900765	     -3.74800412	     -3.40703174	      6.88106736	      0.97941391	      7.49583836	    -39.51479524	     -0.68966328	     11.42335926	     16.76482766	      6.69298456	    -21.38338853	     -2.43548737	      2.34098544	      5.34714282	     -9.71641496	     -8.85621576	     39.09168164	     89.95437384	      0.00000000	      0.00000000	     -9.09873433	      7.83544546	     10.02343236	     14.66619746	     89.95437384	      0.00000000	      0.00000000
      1.17000000	     14.63300129	      0.60808190	      0.74355282	     -0.02031666	      0.94482929	     -1.39961477	    -21.69169831	      1.66214309	    -10.56470482	    -14.29293302	     -0.24945874	     12.88064665	     -4.32683454	     -3.29900724	      7.75075087	      0.72975322	      8.05069760	    -36.80330793	     -0.64233890	     11.28540566	     15.94660142	      6.43965373	    -21.04316337	     -2.67678538	      2.37475769	      5.71429686	     -9.81607291	     -9.11284421	     40.23484508	     89.95437384	      0.00000000	      0.00000000	    -10.07550270	      7.90717464	      9.96884183	     14.51933327	     89.95437384	      0.00000000	      0.00000000
      1.18000000	     14.47460015	      0.89335983	      0.50625782	     -0.00951635	      0.94326091	     -1.39990749	    -22.15156888	      1.29418530	    -10.00504033	    -14.50514521	     -0.25316254	     13.13912987	     -4.82397797	     -3.14603043	      8.18994904	      0.51034684	      9.31603508	    -33.79390081	     -0.58981484	     10.95437487	     14.81287996	      5.95730241	    -20.90067296	     -3.02909258	      2.69236136	      5.99774248	     -9.97385468	     -9.39472526	     41.38852465	     89.95437384	      0.00000000	      0.00000000	    -10.95112050	      7.94116304	     10.03152430	     14.36289884	     89.95437384	      0.00000000	      0.00000000
      1.19000000	     14.33633946	      1.07628806	      0.38089439	      0.00139518	      0.94166126	     -1.40028609	    -22.67850308	      1.06215004	     -9.61263751	    -14.64574532	     -0.25561648	     13.38261283	     -5.15890305	     -3.01065980	      8.59052031	      0.40248758	     10.57044877	    -30.87610640	     -0.53888972	     10.33726765	     13.17825018	      5.25925549	    -20.75566872	     -3.24479248	      2.92105132	      6.25908726	    -10.13049987	     -9.60103547	     42.49045283	     89.95437384	      0.00000000	      0.00000000	    -11.78607092	      7.98219906	     10.16364401	     14.18827444	     89.95437384	      0.00000000	      0.00000000
      1.20000000	     14.17378523	      1.22446321	      0.30404090	      0.01226534	      0.93996502	     -1.40088127	    -23.15287823	      0.84893777	     -9.33663456	    -14.86543988	     -0.25945087	     13.65609731	     -5.37971090	     -2.92352826	      8.92764158	      0.30607978	     11.88345441	    -27.85127849	     -0.48609651	      9.65123732	     11.16001594	      4.49397953	    -20.61556159	     -3.38925722	      3.09190123	      6.54281657	    -10.32346748	     -9.71915391	     43.48942925	     89.95437384	      0.00000000	      0.00000000	    -12.57314739	      7.98847203	     10.41885970	     14.08400922	     89.95437384	      0.00000000	      0.00000000
